<svg width="406" height="62" viewBox="0 0 406 62" fill="none" xmlns="http://www.w3.org/2000/svg">
<path d="M9.56818 48H0.568182L16.9545 1.45454H27.3636L43.7727 48H34.7727L22.3409 11H21.9773L9.56818 48ZM9.86364 29.75H34.4091V36.5227H9.86364V29.75ZM63.7045 48.6818C60.2197 48.6818 57.2273 47.9167 54.7273 46.3864C52.2424 44.8561 50.3258 42.7424 48.9773 40.0455C47.6439 37.3333 46.9773 34.2121 46.9773 30.6818C46.9773 27.1364 47.6591 24.0076 49.0227 21.2955C50.3864 18.5682 52.3106 16.447 54.7955 14.9318C57.2955 13.4015 60.25 12.6364 63.6591 12.6364C66.4924 12.6364 69 13.1591 71.1818 14.2045C73.3788 15.2348 75.1288 16.697 76.4318 18.5909C77.7348 20.4697 78.4773 22.6667 78.6591 25.1818H70.7955C70.4773 23.5 69.7197 22.0985 68.5227 20.9773C67.3409 19.8409 65.7576 19.2727 63.7727 19.2727C62.0909 19.2727 60.6136 19.7273 59.3409 20.6364C58.0682 21.5303 57.0758 22.8182 56.3636 24.5C55.6667 26.1818 55.3182 28.197 55.3182 30.5455C55.3182 32.9242 55.6667 34.9697 56.3636 36.6818C57.0606 38.3788 58.0379 39.6894 59.2955 40.6136C60.5682 41.5227 62.0606 41.9773 63.7727 41.9773C64.9848 41.9773 66.0682 41.75 67.0227 41.2955C67.9924 40.8258 68.803 40.1515 69.4545 39.2727C70.1061 38.3939 70.553 37.3258 70.7955 36.0682H78.6591C78.4621 38.5379 77.7348 40.7273 76.4773 42.6364C75.2197 44.5303 73.5076 46.0152 71.3409 47.0909C69.1742 48.1515 66.6288 48.6818 63.7045 48.6818ZM95.4602 48.7045C93.2481 48.7045 91.2557 48.3106 89.483 47.5227C87.7254 46.7197 86.3314 45.5379 85.3011 43.9773C84.286 42.4167 83.7784 40.4924 83.7784 38.2045C83.7784 36.2348 84.142 34.6061 84.8693 33.3182C85.5966 32.0303 86.589 31 87.8466 30.2273C89.1042 29.4545 90.5208 28.8712 92.0966 28.4773C93.6875 28.0682 95.3314 27.7727 97.0284 27.5909C99.0739 27.3788 100.733 27.1894 102.006 27.0227C103.278 26.8409 104.203 26.5682 104.778 26.2045C105.369 25.8258 105.665 25.2424 105.665 24.4545V24.3182C105.665 22.6061 105.157 21.2803 104.142 20.3409C103.127 19.4015 101.665 18.9318 99.7557 18.9318C97.7405 18.9318 96.142 19.3712 94.9602 20.25C93.7936 21.1288 93.0057 22.1667 92.5966 23.3636L84.9148 22.2727C85.5208 20.1515 86.5208 18.3788 87.9148 16.9545C89.3087 15.5151 91.0133 14.4394 93.0284 13.7273C95.0436 13 97.2708 12.6364 99.7102 12.6364C101.392 12.6364 103.066 12.8333 104.733 13.2273C106.4 13.6212 107.922 14.2727 109.301 15.1818C110.68 16.0758 111.786 17.2955 112.619 18.8409C113.468 20.3864 113.892 22.3182 113.892 24.6364V48H105.983V43.2045H105.71C105.21 44.1742 104.506 45.0833 103.597 45.9318C102.703 46.7652 101.574 47.4394 100.21 47.9545C98.8617 48.4545 97.2784 48.7045 95.4602 48.7045ZM97.5966 42.6591C99.2481 42.6591 100.68 42.3333 101.892 41.6818C103.104 41.0152 104.036 40.1364 104.688 39.0455C105.354 37.9545 105.688 36.7652 105.688 35.4773V31.3636C105.43 31.5758 104.991 31.7727 104.369 31.9545C103.763 32.1364 103.081 32.2955 102.324 32.4318C101.566 32.5682 100.816 32.6894 100.074 32.7955C99.3314 32.9015 98.6875 32.9924 98.142 33.0682C96.9148 33.2348 95.8163 33.5076 94.8466 33.8864C93.8769 34.2652 93.1117 34.7955 92.5511 35.4773C91.9905 36.1439 91.7102 37.0076 91.7102 38.0682C91.7102 39.5833 92.2633 40.7273 93.3693 41.5C94.4754 42.2727 95.8845 42.6591 97.5966 42.6591ZM135.119 48.6136C132.377 48.6136 129.922 47.9091 127.756 46.5C125.589 45.0909 123.877 43.0455 122.619 40.3636C121.362 37.6818 120.733 34.4242 120.733 30.5909C120.733 26.7121 121.369 23.4394 122.642 20.7727C123.93 18.0909 125.665 16.0682 127.847 14.7045C130.028 13.3258 132.46 12.6364 135.142 12.6364C137.188 12.6364 138.869 12.9848 140.188 13.6818C141.506 14.3636 142.551 15.1894 143.324 16.1591C144.097 17.1136 144.695 18.0152 145.119 18.8636H145.46V1.45454H153.71V48H145.619V42.5H145.119C144.695 43.3485 144.081 44.25 143.278 45.2045C142.475 46.1439 141.415 46.947 140.097 47.6136C138.778 48.2803 137.119 48.6136 135.119 48.6136ZM137.415 41.8636C139.157 41.8636 140.642 41.3939 141.869 40.4545C143.097 39.5 144.028 38.1742 144.665 36.4773C145.301 34.7803 145.619 32.803 145.619 30.5455C145.619 28.2879 145.301 26.3258 144.665 24.6591C144.044 22.9924 143.119 21.697 141.892 20.7727C140.68 19.8485 139.188 19.3864 137.415 19.3864C135.581 19.3864 134.051 19.8636 132.824 20.8182C131.597 21.7727 130.672 23.0909 130.051 24.7727C129.43 26.4545 129.119 28.3788 129.119 30.5455C129.119 32.7273 129.43 34.6742 130.051 36.3864C130.688 38.0833 131.619 39.4242 132.847 40.4091C134.089 41.3788 135.612 41.8636 137.415 41.8636ZM177.932 48.6818C174.432 48.6818 171.409 47.9545 168.864 46.5C166.333 45.0303 164.386 42.9545 163.023 40.2727C161.659 37.5758 160.977 34.4015 160.977 30.75C160.977 27.1591 161.659 24.0076 163.023 21.2955C164.402 18.5682 166.326 16.447 168.795 14.9318C171.265 13.4015 174.167 12.6364 177.5 12.6364C179.652 12.6364 181.682 12.9848 183.591 13.6818C185.515 14.3636 187.212 15.4242 188.682 16.8636C190.167 18.303 191.333 20.1364 192.182 22.3636C193.03 24.5758 193.455 27.2121 193.455 30.2727V32.7955H164.841V27.25H185.568C185.553 25.6742 185.212 24.2727 184.545 23.0455C183.879 21.803 182.947 20.8258 181.75 20.1136C180.568 19.4015 179.189 19.0455 177.614 19.0455C175.932 19.0455 174.455 19.4545 173.182 20.2727C171.909 21.0758 170.917 22.1364 170.205 23.4545C169.508 24.7576 169.152 26.1894 169.136 27.75V32.5909C169.136 34.6212 169.508 36.3636 170.25 37.8182C170.992 39.2576 172.03 40.3636 173.364 41.1364C174.697 41.8939 176.258 42.2727 178.045 42.2727C179.242 42.2727 180.326 42.1061 181.295 41.7727C182.265 41.4242 183.106 40.9167 183.818 40.25C184.53 39.5833 185.068 38.7576 185.432 37.7727L193.114 38.6364C192.629 40.6667 191.705 42.4394 190.341 43.9545C188.992 45.4545 187.265 46.6212 185.159 47.4545C183.053 48.2727 180.644 48.6818 177.932 48.6818ZM200.415 48V13.0909H208.278V19.0227H208.688C209.415 17.0227 210.619 15.4621 212.301 14.3409C213.983 13.2045 215.991 12.6364 218.324 12.6364C220.688 12.6364 222.68 13.2121 224.301 14.3636C225.938 15.5 227.089 17.053 227.756 19.0227H228.119C228.892 17.0833 230.195 15.5379 232.028 14.3864C233.877 13.2197 236.066 12.6364 238.597 12.6364C241.809 12.6364 244.43 13.6515 246.46 15.6818C248.491 17.7121 249.506 20.6742 249.506 24.5682V48H241.256V25.8409C241.256 23.6742 240.68 22.0909 239.528 21.0909C238.377 20.0758 236.968 19.5682 235.301 19.5682C233.316 19.5682 231.763 20.1894 230.642 21.4318C229.536 22.6591 228.983 24.2576 228.983 26.2273V48H220.915V25.5C220.915 23.697 220.369 22.2576 219.278 21.1818C218.203 20.1061 216.794 19.5682 215.051 19.5682C213.869 19.5682 212.794 19.8712 211.824 20.4773C210.854 21.0682 210.081 21.9091 209.506 23C208.93 24.0758 208.642 25.3333 208.642 26.7727V48H200.415ZM261.716 61.0909C260.595 61.0909 259.557 61 258.602 60.8182C257.663 60.6515 256.913 60.4545 256.352 60.2273L258.261 53.8182C259.458 54.1667 260.527 54.3333 261.466 54.3182C262.405 54.303 263.231 54.0076 263.943 53.4318C264.67 52.8712 265.284 51.9318 265.784 50.6136L266.489 48.7273L253.83 13.0909H262.557L270.602 39.4545H270.966L279.034 13.0909H287.784L273.807 52.2273C273.155 54.0758 272.292 55.6591 271.216 56.9773C270.14 58.3106 268.822 59.3258 267.261 60.0227C265.716 60.7348 263.867 61.0909 261.716 61.0909ZM341.841 48.6364C338.568 48.6364 335.659 48.0758 333.114 46.9545C330.583 45.8333 328.583 44.2727 327.114 42.2727C325.644 40.2727 324.864 37.9621 324.773 35.3409H333.318C333.394 36.5985 333.811 37.697 334.568 38.6364C335.326 39.5606 336.333 40.2803 337.591 40.7955C338.848 41.3106 340.258 41.5682 341.818 41.5682C343.485 41.5682 344.962 41.2803 346.25 40.7045C347.538 40.1136 348.545 39.2955 349.273 38.25C350 37.2045 350.356 36 350.341 34.6364C350.356 33.2273 349.992 31.9848 349.25 30.9091C348.508 29.8333 347.432 28.9924 346.023 28.3864C344.629 27.7803 342.947 27.4773 340.977 27.4773H336.864V20.9773H340.977C342.598 20.9773 344.015 20.697 345.227 20.1364C346.455 19.5758 347.417 18.7879 348.114 17.7727C348.811 16.7424 349.152 15.553 349.136 14.2045C349.152 12.8864 348.856 11.7424 348.25 10.7727C347.659 9.78788 346.818 9.02273 345.727 8.47727C344.652 7.93182 343.386 7.65909 341.932 7.65909C340.508 7.65909 339.189 7.91666 337.977 8.43182C336.765 8.94697 335.788 9.68182 335.045 10.6364C334.303 11.5758 333.909 12.697 333.864 14H325.75C325.811 11.3939 326.561 9.10606 328 7.13636C329.455 5.15151 331.394 3.60606 333.818 2.5C336.242 1.37879 338.962 0.81818 341.977 0.81818C345.083 0.81818 347.78 1.40151 350.068 2.56818C352.371 3.71969 354.152 5.27273 355.409 7.22727C356.667 9.18182 357.295 11.3409 357.295 13.7045C357.311 16.3258 356.538 18.5227 354.977 20.2955C353.432 22.0682 351.402 23.2273 348.886 23.7727V24.1364C352.159 24.5909 354.667 25.803 356.409 27.7727C358.167 29.7273 359.038 32.1591 359.023 35.0682C359.023 37.6742 358.28 40.0076 356.795 42.0682C355.326 44.1136 353.295 45.7197 350.705 46.8864C348.129 48.053 345.174 48.6364 341.841 48.6364ZM383.051 48H367.278V1.45454H383.369C387.991 1.45454 391.96 2.38636 395.278 4.25C398.612 6.09848 401.172 8.75757 402.96 12.2273C404.748 15.697 405.642 19.8485 405.642 24.6818C405.642 29.5303 404.741 33.697 402.938 37.1818C401.15 40.6667 398.566 43.3409 395.188 45.2045C391.824 47.0682 387.778 48 383.051 48ZM375.71 40.7045H382.642C385.884 40.7045 388.589 40.1136 390.756 38.9318C392.922 37.7348 394.551 35.9545 395.642 33.5909C396.733 31.2121 397.278 28.2424 397.278 24.6818C397.278 21.1212 396.733 18.1667 395.642 15.8182C394.551 13.4545 392.938 11.6894 390.801 10.5227C388.68 9.34091 386.044 8.75 382.892 8.75H375.71V40.7045Z" fill="white"/>
</svg>
